<?xml version="1.0" standalone="no"?>
<!DOCTYPE svg PUBLIC "-//W3C//DTD SVG 20010904//EN"
 "http://www.w3.org/TR/2001/REC-SVG-20010904/DTD/svg10.dtd">
<svg version="1.0" xmlns="http://www.w3.org/2000/svg"
 width="1000.000000pt" height="1000.000000pt" viewBox="0 0 1000.000000 1000.000000"
 preserveAspectRatio="xMidYMid meet">
<metadata>
Created by potrace 1.14, written by Peter Selinger 2001-2017
</metadata>
<g transform="translate(0.000000,1000.000000) scale(0.100000,-0.100000)"
fill="#000000" stroke="none">
<path d="M8076 9901 c-3 -5 -19 -7 -36 -5 -16 2 -30 0 -30 -5 0 -4 -11 -7 -25
-6 -14 2 -27 0 -29 -4 -3 -4 -19 -6 -35 -5 -17 1 -31 -1 -31 -5 0 -4 -9 -7
-20 -8 -12 -1 -18 3 -14 9 4 5 -6 2 -22 -8 -18 -13 -25 -14 -20 -5 7 11 6 12
-5 5 -8 -4 -34 -10 -59 -12 -24 -2 -48 -8 -52 -15 -6 -9 -8 -8 -8 3 0 11 -3
11 -12 2 -14 -14 -32 -16 -23 -2 4 7 -3 7 -20 0 -35 -13 -48 -13 -39 2 4 7 3
8 -5 4 -6 -4 -9 -11 -6 -16 3 -4 -5 -6 -17 -2 -16 4 -19 2 -13 -9 6 -11 5 -12
-6 -1 -7 6 -20 12 -28 12 -14 0 -14 -1 -1 -10 21 -14 -5 -13 -31 0 -10 6 -19
7 -19 3 0 -4 -21 -9 -46 -10 -25 -1 -53 -7 -62 -15 -8 -7 -13 -8 -9 -2 3 6 0
11 -8 11 -8 0 -12 -4 -9 -9 3 -4 0 -8 -5 -8 -6 0 -11 5 -11 11 0 5 -5 7 -10 4
-6 -4 -8 -11 -5 -16 4 -5 -5 -5 -21 1 -23 9 -25 8 -20 -7 6 -16 5 -16 -13 1
-13 12 -20 14 -23 5 -4 -13 -58 -20 -58 -7 0 4 -5 8 -11 8 -5 0 -7 -4 -4 -10
3 -5 2 -10 -4 -10 -5 0 -13 5 -17 12 -5 7 -11 5 -21 -7 -7 -11 -13 -14 -13 -8
0 6 -11 10 -25 9 -14 0 -25 -7 -25 -14 0 -7 -5 -10 -10 -7 -6 4 -7 12 -4 18 4
7 -5 1 -21 -13 l-28 -25 13 24 c10 19 10 22 -2 15 -7 -5 -25 -9 -40 -10 -46
-2 -49 -4 -43 -14 4 -7 -3 -7 -20 0 -14 5 -24 6 -21 2 3 -5 -21 -8 -54 -8 -32
1 -56 -2 -53 -7 3 -5 -5 -8 -18 -7 -54 5 -63 1 -48 -17 7 -10 2 -8 -11 4 -22
21 -24 21 -49 5 -17 -11 -22 -13 -17 -4 7 11 4 12 -12 3 -27 -15 -45 -14 -37
2 4 6 -4 1 -16 -13 -13 -15 -20 -18 -16 -8 6 17 -8 19 -32 4 -8 -5 -16 -3 -22
5 -8 12 -13 6 -11 -12 1 -3 -5 -6 -13 -6 -8 0 -12 5 -8 10 3 5 -4 4 -14 -2
-11 -6 -23 -7 -27 -4 -3 3 -15 -2 -26 -12 -11 -10 -20 -13 -20 -7 0 7 5 12 12
12 6 0 9 3 5 6 -10 11 -48 -7 -40 -19 5 -8 2 -8 -9 1 -12 10 -54 11 -65 1 -8
-6 -30 -4 -40 4 -9 6 -13 5 -13 -3 0 -7 -7 -10 -15 -6 -8 3 -15 1 -15 -4 0 -6
-5 -10 -11 -10 -5 0 -8 4 -5 8 2 4 -4 8 -14 8 -10 0 -16 -5 -13 -10 4 -5 -1
-7 -12 -3 -9 4 -25 2 -33 -5 -9 -7 -13 -8 -9 -2 5 9 -23 12 -43 4 -3 -1 -9 -2
-14 -1 -5 1 -13 -4 -17 -11 -5 -8 -9 -9 -9 -2 0 7 -10 9 -25 6 -14 -2 -23 -8
-20 -11 2 -4 -2 -8 -10 -8 -8 0 -12 4 -9 9 3 4 -5 6 -18 4 -13 -2 -22 -10 -20
-17 1 -8 -5 -5 -13 5 -11 14 -15 16 -15 5 0 -12 -2 -12 -10 1 -5 8 -10 10 -10
4 0 -7 -7 -15 -16 -18 -8 -3 -13 -2 -10 2 2 4 -4 8 -14 8 -10 0 -17 -3 -14 -7
2 -4 -3 -9 -11 -13 -8 -3 -17 0 -21 6 -5 7 -2 8 6 3 8 -5 11 -4 6 3 -4 6 -13
9 -21 6 -8 -4 -12 -11 -9 -16 4 -6 -4 -5 -16 2 -15 8 -20 8 -16 1 4 -6 3 -11
-3 -11 -5 0 -11 5 -13 12 -3 8 -9 8 -19 2 -8 -5 -30 -10 -49 -12 -61 -4 -65
-5 -72 -16 -5 -7 -8 -6 -8 3 0 10 -3 11 -13 3 -8 -7 -18 -7 -27 -2 -10 6 -20
4 -31 -6 -12 -11 -19 -12 -24 -4 -5 8 -11 8 -21 -1 -11 -9 -14 -8 -14 2 -1 9
-5 8 -15 -5 -9 -12 -15 -15 -15 -7 0 11 -3 11 -17 0 -10 -8 -14 -9 -10 -2 5 8
0 11 -13 10 -11 -1 -20 -7 -20 -15 0 -10 -4 -10 -16 2 -17 17 -28 21 -20 7 3
-5 -1 -12 -10 -15 -8 -3 -12 -2 -9 4 3 6 1 10 -4 10 -6 0 -11 -6 -11 -12 0 -8
-3 -9 -8 -3 -10 15 -35 18 -26 4 5 -8 2 -10 -8 -6 -9 3 -21 0 -27 -6 -8 -8
-11 -7 -11 3 0 13 -2 13 -10 0 -7 -11 -10 -11 -10 -2 0 10 -5 10 -21 2 -11 -7
-27 -9 -34 -6 -8 3 -16 0 -19 -7 -3 -9 -5 -9 -5 1 -1 6 -6 12 -12 12 -5 0 -7
-5 -3 -12 5 -8 2 -9 -11 -5 -9 4 -24 2 -32 -4 -10 -9 -17 -9 -25 -1 -13 13
-40 4 -31 -12 4 -6 -6 -3 -21 8 -16 10 -25 13 -22 7 8 -12 -4 -14 -42 -11 -13
1 -30 -4 -38 -11 -13 -10 -17 -10 -25 2 -5 8 -9 9 -9 3 0 -7 -20 -10 -51 -10
-28 1 -53 -2 -56 -8 -3 -5 -1 -6 5 -2 6 3 13 2 16 -3 9 -14 -19 -7 -40 9 -15
12 -16 12 -9 1 6 -11 3 -13 -13 -9 -12 4 -20 2 -16 -3 3 -5 -2 -9 -10 -9 -9 0
-16 6 -16 13 0 7 -3 8 -8 2 -8 -12 -20 -15 -72 -17 -22 -1 -40 -5 -40 -9 0
-10 -34 -6 -42 6 -5 6 -8 5 -8 -4 0 -8 -7 -11 -20 -8 -11 3 -20 0 -20 -5 0 -6
-6 -5 -15 2 -8 7 -15 8 -15 2 0 -5 -12 -10 -27 -10 -16 -1 -43 -2 -61 -2 -22
-1 -30 -5 -25 -13 4 -7 0 -6 -10 2 -11 9 -17 10 -17 2 0 -6 -5 -11 -11 -11 -5
0 -7 6 -4 13 4 6 1 5 -7 -3 -14 -17 -32 -20 -44 -7 -4 4 -18 0 -30 -8 -17 -11
-25 -12 -30 -3 -5 7 -3 8 6 3 9 -6 11 -4 5 5 -7 11 -10 10 -19 -1 -6 -8 -27
-13 -46 -13 -19 1 -41 -3 -47 -8 -9 -7 -13 -7 -13 1 0 7 -5 9 -10 6 -6 -4 -7
-12 -3 -18 5 -9 3 -9 -8 -2 -8 6 -21 10 -29 9 -8 -1 -25 -2 -38 -3 -13 0 -20
-5 -17 -11 3 -5 1 -10 -4 -10 -6 0 -11 5 -11 11 0 6 -9 8 -21 4 -12 -4 -27 -8
-33 -9 -6 -1 -17 -5 -23 -9 -9 -6 -11 -3 -7 10 5 16 4 16 -8 2 -7 -9 -19 -14
-27 -11 -7 2 -17 -2 -22 -9 -5 -8 -9 -9 -9 -3 0 6 -10 10 -22 8 -13 -1 -23 -3
-23 -4 0 -1 -18 -4 -40 -6 -53 -5 -68 -8 -82 -17 -8 -5 -13 -3 -13 5 0 9 -3
10 -8 2 -4 -6 -15 -10 -24 -8 -10 1 -18 -2 -18 -8 0 -7 -5 -6 -14 1 -11 9 -16
9 -22 0 -5 -8 -3 -9 6 -4 9 5 11 4 6 -4 -4 -6 -13 -8 -19 -4 -18 11 -37 12
-37 3 0 -5 -18 -8 -41 -8 -22 0 -46 -5 -52 -11 -6 -6 -16 -11 -22 -11 -5 0 -4
4 4 9 10 7 7 9 -12 8 -14 -1 -23 -6 -20 -10 2 -4 -7 -6 -21 -3 -16 3 -26 0
-26 -7 0 -7 -4 -6 -10 3 -5 8 -10 10 -10 4 0 -6 -15 -10 -35 -9 -19 1 -35 -2
-35 -7 0 -4 -10 -6 -22 -4 -13 2 -33 0 -44 -5 -13 -4 -26 -3 -34 4 -9 9 -11 9
-7 1 9 -17 -18 -25 -33 -11 -10 9 -11 9 -5 -2 6 -10 2 -11 -15 -6 -13 4 -20 3
-17 -2 3 -5 -10 -7 -29 -5 -21 3 -34 0 -34 -7 0 -9 -5 -9 -20 -1 -11 6 -20 7
-20 2 0 -5 -12 -10 -27 -10 -48 -3 -79 -9 -93 -17 -9 -6 -11 -4 -5 4 5 10 3
11 -11 4 -11 -5 -34 -10 -53 -12 -18 -1 -42 -6 -52 -12 -13 -7 -19 -6 -19 1 0
7 -6 8 -19 1 -10 -6 -21 -8 -24 -4 -3 3 -13 -2 -23 -11 -13 -14 -19 -14 -31
-4 -12 10 -18 9 -29 -7 -13 -18 -14 -18 -14 -1 0 15 -3 16 -15 6 -8 -7 -15 -9
-15 -5 0 4 -6 2 -14 -4 -11 -10 -17 -8 -25 6 -10 17 -10 17 -11 -1 0 -12 -5
-16 -15 -12 -8 3 -15 0 -15 -7 0 -8 -3 -8 -9 2 -6 9 -14 10 -27 3 -11 -5 -27
-8 -36 -7 -10 2 -18 0 -18 -5 0 -4 -12 -6 -27 -4 -15 1 -34 -1 -43 -6 -9 -5
-22 -5 -30 0 -14 9 -43 2 -36 -9 6 -8 -42 -7 -50 2 -4 3 -13 0 -20 -8 -8 -7
-23 -11 -34 -8 -11 3 -32 -3 -47 -13 -23 -14 -26 -15 -15 -1 12 14 11 16 -7
14 -12 -1 -21 -5 -21 -10 0 -4 -5 -5 -10 -2 -6 4 -18 1 -27 -7 -12 -9 -15 -9
-9 0 9 15 -6 16 -22 0 -9 -9 -12 -9 -12 1 0 11 -3 11 -15 1 -8 -7 -15 -9 -15
-5 0 4 -8 1 -17 -6 -11 -10 -14 -10 -9 -1 4 6 2 12 -3 12 -6 0 -11 -5 -11 -11
0 -8 -4 -8 -13 0 -10 8 -17 7 -27 -2 -10 -10 -12 -9 -6 3 4 8 0 6 -8 -4 -10
-13 -16 -15 -16 -7 0 11 -3 11 -17 0 -15 -12 -16 -12 -8 1 8 13 7 13 -8 1 -14
-11 -17 -11 -17 0 0 12 -2 12 -9 0 -5 -7 -15 -11 -22 -9 -8 3 -22 1 -31 -4
-13 -6 -18 -5 -18 4 0 8 -3 9 -8 3 -4 -6 -14 -10 -22 -10 -8 1 -21 -3 -28 -9
-10 -7 -16 -5 -23 5 -6 9 -9 10 -9 2 0 -7 -7 -10 -17 -6 -11 4 -14 3 -9 -5 5
-9 1 -9 -18 -2 -16 6 -27 6 -31 -1 -4 -5 -11 -7 -16 -3 -5 3 -16 0 -24 -6 -11
-10 -15 -10 -15 -1 0 7 -5 9 -12 4 -7 -4 -21 -6 -30 -5 -13 2 -16 -2 -12 -15
5 -17 5 -17 -6 0 -11 18 -12 18 -27 0 -14 -17 -14 -17 -9 0 5 15 2 16 -14 7
-11 -6 -20 -7 -20 -3 0 4 -5 1 -10 -7 -8 -12 -10 -12 -10 -1 0 11 -3 11 -17 0
-15 -12 -16 -12 -8 1 6 10 2 9 -12 -3 -14 -12 -23 -15 -28 -7 -3 5 -11 8 -16
4 -6 -3 -22 -8 -37 -10 -40 -6 -135 -16 -154 -17 -10 -1 -18 -5 -18 -10 0 -5
-7 -7 -15 -3 -22 8 -33 -23 -30 -84 6 -96 22 -255 25 -255 2 0 11 -94 13 -132
1 -18 4 -33 7 -33 3 0 6 -21 7 -48 2 -50 10 -134 13 -142 1 -3 2 -17 2 -32 1
-16 5 -28 11 -28 5 0 5 -5 -2 -13 -6 -8 -8 -17 -4 -21 4 -4 8 -24 9 -44 2 -20
5 -59 8 -87 3 -27 8 -72 11 -100 10 -93 14 -120 15 -120 1 0 3 -16 5 -35 4
-51 15 -141 20 -175 3 -16 7 -55 10 -85 2 -30 7 -71 10 -90 3 -19 7 -60 9 -90
3 -30 8 -80 12 -110 4 -30 8 -66 10 -80 1 -14 3 -25 4 -25 1 0 3 -22 5 -50 2
-27 6 -70 9 -95 8 -69 19 -183 19 -197 0 -7 4 -13 9 -13 5 0 4 -9 -2 -20 -6
-11 -7 -20 -3 -20 5 0 9 -15 10 -32 3 -78 10 -135 17 -146 4 -7 2 -12 -6 -12
-8 0 -9 -3 -3 -8 6 -4 11 -18 12 -32 4 -53 11 -115 12 -115 1 0 4 -29 7 -65 6
-82 12 -145 18 -190 2 -19 6 -53 7 -75 1 -22 5 -44 8 -50 2 -5 4 -28 4 -52 -1
-24 2 -43 5 -43 4 0 7 -32 7 -70 0 -38 3 -70 6 -70 4 0 7 -19 7 -42 0 -24 1
-45 2 -48 2 -3 4 -23 7 -45 8 -80 10 -100 13 -100 1 0 3 -20 4 -45 2 -25 6
-79 11 -120 4 -41 8 -85 8 -97 1 -13 3 -23 7 -23 3 0 5 -13 5 -30 1 -16 -4
-30 -10 -30 -5 0 -4 -4 3 -9 7 -4 13 -27 14 -49 0 -23 5 -42 10 -42 6 0 6 -6
-1 -14 -7 -8 -8 -17 -3 -20 5 -3 8 -17 6 -32 -1 -15 2 -37 6 -50 7 -17 6 -24
-3 -24 -8 0 -8 -3 -1 -8 5 -4 9 -22 8 -39 0 -18 2 -33 5 -33 4 0 7 -17 8 -37
1 -35 5 -73 19 -193 3 -25 5 -53 5 -63 0 -9 5 -15 11 -11 7 4 7 0 1 -12 -11
-22 -11 -34 0 -52 5 -6 5 -17 2 -22 -3 -5 -3 -10 2 -10 4 0 9 -24 10 -53 2
-81 17 -232 23 -232 2 0 10 -100 13 -152 0 -13 3 -23 7 -23 3 0 6 -24 8 -53 4
-88 7 -102 17 -109 6 -5 5 -8 -3 -8 -9 0 -10 -5 -3 -18 5 -10 8 -32 7 -50 -1
-18 2 -36 7 -39 4 -3 6 -12 3 -20 -4 -9 -2 -21 4 -28 8 -9 8 -15 0 -20 -6 -3
-7 -11 -4 -17 4 -5 8 -29 10 -51 3 -23 7 -58 10 -77 10 -67 14 -105 18 -150 2
-25 7 -65 10 -90 4 -25 9 -65 11 -90 2 -25 4 -45 5 -45 1 0 3 -19 5 -42 1 -23
6 -59 10 -80 6 -36 13 -97 19 -170 2 -18 8 -39 15 -47 8 -10 9 -16 1 -21 -6
-3 -8 -10 -5 -15 3 -5 6 -30 7 -55 0 -25 3 -45 7 -45 3 0 7 -19 7 -43 1 -42
11 -152 14 -152 3 0 8 -42 12 -97 1 -27 5 -48 8 -48 3 0 6 -32 8 -72 2 -40 8
-79 15 -87 10 -12 9 -13 -3 -6 -13 7 -13 6 -2 -7 9 -11 10 -18 2 -23 -6 -3 -7
-11 -4 -17 4 -6 8 -24 10 -39 6 -48 13 -81 18 -87 3 -3 1 -11 -5 -19 -7 -8 -7
-13 -2 -13 6 0 9 -12 7 -27 -1 -16 5 -36 14 -47 9 -11 11 -16 4 -12 -10 6 -12
1 -9 -22 3 -17 8 -35 11 -41 4 -5 2 -12 -4 -16 -7 -4 -6 -14 2 -28 6 -12 11
-23 10 -24 -1 -2 -2 -17 -2 -34 0 -19 4 -28 11 -23 8 4 8 0 0 -15 -7 -11 -8
-21 -3 -21 5 0 8 -18 7 -40 -1 -22 1 -40 4 -40 3 0 6 -24 6 -53 -1 -30 6 -62
15 -77 9 -15 10 -21 3 -17 -9 5 -13 2 -13 -8 0 -9 3 -14 8 -12 6 5 10 -31 13
-126 0 -15 4 -25 9 -22 5 3 12 1 15 -5 4 -6 1 -9 -6 -8 -9 2 -12 -7 -10 -32 4
-45 9 -68 16 -80 3 -6 0 -10 -7 -10 -8 0 -9 -3 -3 -8 11 -8 13 -25 17 -119 2
-35 5 -63 8 -63 3 0 6 -23 8 -52 1 -28 7 -57 13 -64 7 -8 6 -14 -3 -17 -10 -4
-10 -6 1 -6 11 -1 11 -4 0 -18 -8 -9 -9 -14 -3 -10 8 4 12 -7 13 -36 1 -52 4
-68 14 -84 5 -8 3 -13 -3 -13 -6 0 -8 -4 -5 -10 7 -11 14 -64 18 -125 1 -22 6
-46 11 -54 6 -10 5 -16 -3 -19 -9 -3 -9 -7 0 -18 6 -7 13 -53 15 -101 6 -147
15 -228 25 -231 5 -2 7 -7 5 -11 -6 -9 31 -8 39 1 3 3 19 4 35 2 17 -2 30 1
30 7 0 8 5 7 15 -1 10 -8 15 -9 15 -2 0 7 20 10 55 7 37 -2 55 1 55 8 0 8 4 7
9 -2 6 -9 10 -10 16 -2 5 9 10 9 20 1 10 -8 15 -8 21 1 5 8 3 9 -6 4 -9 -5
-11 -4 -6 4 6 9 11 9 22 0 11 -9 14 -9 14 1 0 10 3 10 15 0 12 -10 15 -10 15
0 0 9 4 9 17 -1 9 -8 14 -9 10 -3 -4 7 0 15 9 18 12 4 15 2 10 -9 -4 -13 -2
-14 14 -5 10 5 26 7 36 3 12 -4 15 -3 10 5 -4 7 -3 12 3 12 5 0 12 -4 16 -10
9 -14 35 0 35 19 0 13 2 14 9 1 6 -8 7 -18 4 -24 -3 -5 -1 -6 5 -2 7 4 12 15
13 24 0 14 2 13 9 -3 5 -11 9 -15 9 -10 1 6 14 10 31 11 18 1 27 -3 24 -10 -3
-6 1 -3 9 7 15 18 16 18 26 0 8 -14 10 -15 11 -2 0 8 -5 20 -10 25 -7 7 -6 11
4 11 8 0 15 -3 14 -6 -2 -19 4 -28 17 -28 12 0 12 3 2 16 -10 12 -9 13 2 6 8
-4 29 -9 48 -10 27 -1 33 2 28 14 -4 9 5 6 22 -9 15 -14 22 -17 15 -8 -12 15
-10 16 20 14 18 -2 39 2 47 8 11 8 13 8 7 -1 -5 -9 -2 -11 8 -7 9 3 13 11 9
18 -3 6 4 2 17 -9 13 -11 20 -14 15 -6 -6 11 -3 13 13 9 12 -4 22 -2 22 2 0 4
9 6 20 3 11 -3 26 0 34 6 11 9 16 9 21 0 6 -8 10 -8 15 2 7 10 11 10 24 0 9
-8 16 -9 16 -3 0 6 17 9 40 8 22 -2 40 1 40 6 0 5 11 6 24 2 13 -3 27 -1 31 6
5 8 11 7 23 -2 13 -11 14 -11 8 0 -6 11 1 12 38 8 31 -3 46 -1 46 7 0 7 4 6
10 -3 8 -12 10 -12 11 5 0 11 3 14 6 8 6 -17 40 -17 46 0 4 9 6 8 6 -2 1 -11
4 -11 18 0 15 12 16 12 8 -1 -7 -12 -6 -13 6 -3 12 10 18 10 29 0 10 -10 11
-9 5 2 -6 10 -4 13 7 8 9 -3 27 1 42 8 18 10 28 10 32 3 5 -7 2 -8 -6 -3 -9 6
-11 4 -5 -5 6 -10 11 -9 22 5 9 13 13 15 13 5 0 -11 3 -11 12 -2 15 15 31 16
22 0 -5 -7 -3 -8 7 -2 14 9 19 10 52 12 12 1 16 7 11 15 -4 6 2 3 14 -7 14
-12 22 -14 22 -7 0 7 4 10 9 7 5 -4 12 0 14 6 4 9 6 9 6 1 1 -14 41 -5 41 11
0 6 5 3 11 -7 7 -12 15 -15 22 -9 7 5 22 8 34 7 13 -1 23 2 23 6 0 5 12 4 26
-2 21 -7 31 -6 44 6 19 17 34 20 24 4 -5 -8 -1 -8 14 0 11 6 28 8 38 4 13 -5
15 -3 9 8 -7 12 -6 12 7 1 10 -8 19 -9 22 -3 3 5 15 7 25 4 10 -3 22 0 25 6 4
6 13 11 19 11 7 0 6 -4 -3 -10 -11 -8 -9 -9 10 -6 14 3 29 5 33 5 5 1 5 7 1
14 -5 8 -2 8 9 -2 12 -9 17 -10 17 -2 0 7 5 9 10 6 6 -4 8 -12 4 -18 -3 -7 0
-5 8 3 7 9 25 15 41 13 15 -1 25 2 22 8 -4 5 -1 9 4 9 6 0 11 -6 11 -12 0 -9
4 -8 10 2 9 13 10 13 11 0 0 -10 3 -8 9 5 l9 20 0 -20 c1 -17 3 -17 11 -5 5 8
10 11 10 5 0 -5 7 -2 14 8 11 14 15 15 19 4 3 -9 16 -12 36 -9 18 2 28 9 24
15 -4 6 -1 7 8 1 21 -13 39 -14 39 -2 0 6 7 4 17 -3 13 -11 15 -11 9 -1 -6 10
-2 13 15 12 49 -4 100 0 95 8 -3 5 2 9 10 9 9 0 13 -6 9 -15 -5 -13 -3 -13 11
-1 22 18 47 21 56 6 6 -9 8 -9 8 1 0 8 10 13 28 12 45 -3 54 -1 46 13 -5 8 -2
7 9 -2 15 -12 20 -12 33 5 9 10 13 14 10 7 -4 -6 -2 -14 4 -18 5 -3 10 -2 10
3 0 5 18 9 40 8 25 -1 41 3 45 11 3 10 10 11 22 4 10 -5 20 -10 23 -12 3 -1
15 3 28 10 13 7 22 8 22 2 0 -6 7 -8 15 -5 8 4 13 9 10 13 -2 4 2 8 10 8 8 0
12 -4 9 -9 -3 -4 5 -6 18 -4 13 3 29 5 36 5 8 1 10 6 6 14 -6 9 -4 9 7 -1 19
-17 32 -15 25 6 -5 14 -4 14 9 -2 11 -14 15 -16 15 -5 0 8 3 10 8 4 9 -12 38
-13 49 -1 5 5 2 6 -6 1 -10 -6 -12 -4 -6 4 5 9 10 10 18 2 12 -12 31 -15 24
-3 -3 4 25 8 61 9 154 5 171 7 159 22 -10 12 -9 12 10 3 29 -16 46 -15 37 1
-5 8 -2 8 9 -2 14 -11 17 -11 17 0 0 10 3 10 11 2 13 -13 42 -5 33 9 -4 6 1 6
13 0 11 -6 25 -7 33 -2 9 6 17 5 22 -3 5 -8 8 -5 9 8 l0 20 9 -20 c5 -11 9
-14 9 -7 1 7 5 10 11 7 5 -3 19 -1 30 5 14 8 20 8 20 0 0 -6 5 -8 12 -4 6 4
39 9 72 11 33 3 64 10 68 16 6 9 8 9 8 -1 0 -12 16 -11 74 5 12 3 16 1 12 -6
-5 -7 -1 -9 8 -5 9 3 13 11 9 17 -4 6 -1 7 8 1 18 -11 59 -13 59 -2 0 5 11 6
24 2 13 -3 34 0 46 6 15 8 20 8 16 1 -8 -12 6 -15 18 -4 4 4 28 8 54 9 103 5
122 8 122 16 0 5 6 6 12 2 16 -10 48 -13 43 -4 -2 4 9 7 25 7 18 0 27 -5 24
-11 -3 -6 1 -4 8 6 11 12 18 14 32 6 15 -8 17 -8 10 3 -7 12 -5 12 9 0 11 -9
17 -10 17 -2 0 7 10 10 26 7 14 -3 36 -1 50 4 17 7 24 6 24 -3 0 -9 2 -9 8 0
4 6 23 11 42 9 19 -2 47 1 62 5 16 4 30 3 34 -2 4 -6 10 -6 18 0 7 6 15 8 19
5 3 -3 15 0 27 6 12 7 20 8 17 3 -4 -5 0 -10 8 -10 8 0 12 4 9 9 -7 11 7 10
26 -1 8 -6 19 -7 25 -3 15 9 34 13 85 15 25 1 50 5 57 10 6 4 15 2 19 -4 4 -8
9 -7 15 2 7 12 9 11 9 0 0 -11 4 -9 15 5 8 10 14 15 13 9 -2 -5 2 -10 7 -10 6
0 9 4 7 10 -2 5 7 1 19 -10 12 -11 19 -15 16 -9 -5 8 5 12 28 12 20 0 43 6 52
14 13 10 15 10 9 0 -6 -9 -1 -12 16 -10 12 2 29 7 36 11 7 5 12 4 12 -3 0 -7
7 -7 22 1 16 9 23 9 26 1 2 -8 8 -7 18 3 10 9 22 12 36 6 27 -10 70 -2 61 12
-4 6 -1 7 8 1 20 -12 39 -14 39 -3 0 5 5 9 11 9 5 0 7 -5 3 -11 -4 -8 -1 -8
12 -1 11 5 25 7 33 4 9 -3 11 0 6 8 -6 9 -4 11 6 4 22 -13 119 -5 131 11 5 6
8 5 8 -4 0 -11 3 -11 15 -1 12 10 15 10 15 -1 0 -8 6 -6 16 7 8 10 13 14 10 7
-4 -6 -2 -14 3 -17 5 -3 12 1 15 10 5 13 9 14 20 5 10 -8 16 -9 21 -1 4 7 12
7 26 0 12 -7 19 -7 19 -1 0 6 16 9 36 7 19 -1 37 2 41 6 3 5 11 7 19 4 7 -3
16 -1 19 4 4 7 13 6 26 0 13 -8 19 -7 19 0 0 6 5 8 11 4 6 -3 16 0 21 7 8 11
11 11 15 1 4 -9 8 -10 18 -2 10 8 15 8 20 0 5 -8 11 -8 21 1 7 6 21 9 29 5 8
-3 15 0 15 6 0 6 6 5 17 -3 14 -12 15 -12 9 0 -7 10 -3 12 14 6 15 -5 20 -4
16 4 -5 8 0 8 19 1 14 -5 24 -6 21 -1 -3 4 15 8 39 8 25 0 50 5 58 11 7 7 18
7 27 2 8 -5 21 -5 30 0 11 6 22 5 30 -3 8 -8 11 -8 7 -1 -9 16 49 24 64 10 9
-8 10 -8 5 2 -6 9 -1 11 18 8 14 -3 26 -1 26 3 0 4 23 7 50 7 28 -1 50 2 50 6
0 4 9 5 20 3 11 -2 22 0 25 6 4 5 14 5 26 -1 10 -6 19 -7 19 -3 0 5 15 9 33 9
39 1 133 13 164 20 14 4 20 11 16 18 -5 8 -3 8 8 0 16 -11 24 -11 54 1 21 9
61 45 49 45 -3 0 -2 6 3 13 13 16 3 223 -12 247 -4 6 0 10 7 10 8 0 9 3 3 8
-5 4 -11 12 -11 17 -5 32 -16 145 -18 172 0 18 -3 33 -6 33 -3 0 -6 21 -7 48
-1 43 -5 84 -19 187 -2 22 -6 54 -8 70 -2 17 -5 32 -6 35 -1 3 -2 22 -2 43 1
21 -2 36 -6 33 -4 -2 -7 17 -8 42 -1 50 -11 167 -14 167 -1 0 -3 18 -5 40 -2
22 -6 60 -9 85 -9 73 -19 173 -20 198 0 12 -2 22 -5 22 -4 0 -7 21 -8 48 -2
65 -13 161 -23 200 -6 22 -5 32 3 33 7 0 3 4 -8 9 -11 5 -14 9 -7 9 9 1 11 10
7 34 -3 17 -8 52 -10 77 -2 25 -4 45 -5 45 -1 0 -3 18 -4 40 -3 42 -15 148
-22 200 -2 17 -6 48 -8 70 -2 22 -4 40 -5 40 -2 0 -4 29 -6 65 -2 36 -6 79 -9
95 -8 48 -28 263 -30 327 0 21 -4 38 -7 38 -4 0 -6 16 -5 35 1 19 -1 35 -4 35
-3 0 -5 20 -4 45 0 25 -2 45 -5 45 -3 0 -6 17 -7 38 0 20 -4 66 -8 102 -4 36
-9 85 -11 110 -3 25 -7 70 -11 100 -3 30 -8 73 -10 95 -2 22 -7 65 -10 95 -3
30 -7 72 -8 92 0 21 -3 38 -6 38 -3 0 -5 17 -5 38 1 20 -1 41 -4 47 -3 5 -6
26 -7 45 -3 58 -12 118 -19 129 -3 6 -2 11 4 11 7 0 7 8 1 26 -6 14 -8 29 -5
34 3 5 2 11 -3 14 -4 2 -7 23 -6 45 0 23 -2 41 -5 41 -3 0 -7 19 -7 43 -1 23
-4 65 -7 92 -3 28 -9 77 -12 110 -10 94 -13 117 -19 155 -8 56 -17 140 -21
200 -2 30 -8 68 -14 83 -6 16 -7 26 -2 22 6 -3 5 9 0 30 -6 19 -7 40 -4 45 3
6 3 10 -2 10 -4 0 -9 21 -9 48 -1 26 -5 63 -8 82 -4 19 -8 60 -10 90 -2 30 -5
55 -6 55 -3 0 -10 65 -13 117 -1 27 -5 48 -9 48 -4 0 -5 7 -2 15 3 8 3 19 -1
26 -4 6 -8 36 -9 68 0 31 -5 59 -10 63 -6 4 -5 13 3 22 9 11 10 16 2 16 -6 0
-11 10 -11 23 -1 71 -3 97 -9 97 -5 0 -7 20 -11 114 -1 16 -6 38 -12 49 -7 15
-7 18 2 12 9 -5 9 -3 2 11 -5 11 -10 33 -10 49 0 17 -1 32 -2 35 -1 3 -4 19
-5 35 -8 73 -17 142 -21 165 -3 14 -7 48 -9 75 -5 65 -13 138 -21 200 -4 28
-7 56 -7 63 0 6 -5 12 -10 12 -5 0 -4 6 2 13 6 8 8 16 5 19 -3 3 -8 28 -11 55
-2 26 -6 55 -7 63 -2 13 -9 72 -20 195 -1 12 -5 25 -8 30 -3 6 -6 29 -7 53 -3
82 -5 102 -10 102 -3 0 -6 12 -7 28 -2 77 -8 129 -17 146 -7 14 -6 16 4 11 8
-5 10 -4 5 4 -8 13 -12 34 -21 111 -3 30 -8 73 -11 95 -3 22 -7 58 -9 80 -3
22 -7 56 -10 75 -3 19 -6 51 -7 70 0 19 -5 41 -11 48 -6 8 -6 12 2 12 7 0 9 5
6 11 -6 9 -10 34 -20 124 -2 17 -4 30 -5 30 -1 0 -3 19 -5 41 -1 23 -6 47 -9
53 -4 6 -2 11 4 11 6 0 3 12 -7 27 -13 19 -14 25 -4 18 11 -6 13 -4 7 11 -14
35 -15 54 -3 54 8 0 7 3 -2 9 -8 5 -11 16 -8 25 3 8 2 18 -3 21 -5 3 -7 12 -3
20 3 9 0 22 -7 30 -9 11 -9 15 -1 15 7 0 9 5 4 12 -4 7 -9 35 -10 63 -5 77 -7
89 -18 97 -6 5 -5 8 3 8 7 0 10 5 6 11 -6 11 -10 43 -19 174 -2 39 -7 90 -9
115 -10 81 -17 144 -22 175 -9 60 -13 101 -15 138 -1 20 -6 37 -10 37 -5 0 -6
6 -3 14 6 15 -22 30 -30 17z m-626 -95 c0 -3 -4 -8 -10 -11 -5 -3 -10 -1 -10
4 0 6 5 11 10 11 6 0 10 -2 10 -4z m-5679 -8423 c13 -16 12 -17 -3 -4 -17 13
-22 21 -14 21 2 0 10 -8 17 -17z m2079 -1083 c0 -5 -5 -10 -11 -10 -5 0 -7 5
-4 10 3 6 8 10 11 10 2 0 4 -4 4 -10z m-1105 -99 c3 -5 2 -12 -3 -15 -5 -3 -9
1 -9 9 0 17 3 19 12 6z m-95 -15 c0 -3 -4 -8 -10 -11 -5 -3 -10 -1 -10 4 0 6
5 11 10 11 6 0 10 -2 10 -4z"/>
</g>
</svg>
